<?xml version="1.0" encoding="utf-8"?>
<!-- Generator: Adobe Illustrator 18.0.0, SVG Export Plug-In . SVG Version: 6.00 Build 0)  -->
<!DOCTYPE svg PUBLIC "-//W3C//DTD SVG 1.1//EN" "http://www.w3.org/Graphics/SVG/1.1/DTD/svg11.dtd">
<svg version="1.1" id="Layer_1" xmlns="http://www.w3.org/2000/svg" xmlns:xlink="http://www.w3.org/1999/xlink" x="0px" y="0px"
	 viewBox="0 0 26.2 42" style="enable-background:new 0 0 26.2 42;" xml:space="preserve">
<style type="text/css">
	.st0{fill:#F89838;}
	.st1{fill:#009999;}
</style>
<g>
	
		<image style="overflow:visible;opacity:0.6;" width="58" height="73" xlink:href="DFF23DFBC976C172.png"  transform="matrix(1 0 0 1 -15.875 -7)">
	</image>
	<g>
		<g>
			<path class="st0" d="M0,1.6C4.8,4.8,9.1,10.1,15.8,21c1.8-3,3.1-5,5.2-8.2C14.6,3.8,10.2,0.2,5.3,0h0C3.9,0.1,2.6,0.2,0,1.6"/>
			<path class="st1" d="M0,40.4c2.6,1.5,3.9,1.6,5.2,1.6h0c4.9-0.2,9.4-3.8,15.7-12.8C18.8,26,17.6,24,15.8,21
				C9.1,31.9,4.8,37.2,0,40.4"/>
			<path class="st1" d="M26.2,21c-1.8-3-3.1-5-5.2-8.2C18.8,16,17.6,18,15.8,21c1.8,3,3.1,5,5.2,8.2C23.2,26,24.4,24,26.2,21z"/>
		</g>
	</g>
</g>
</svg>
