<?xml version="1.0" encoding="utf-8"?>
<!-- Generator: Adobe Illustrator 18.0.0, SVG Export Plug-In . SVG Version: 6.00 Build 0)  -->
<!DOCTYPE svg PUBLIC "-//W3C//DTD SVG 1.1//EN" "http://www.w3.org/Graphics/SVG/1.1/DTD/svg11.dtd">
<svg version="1.1" id="Layer_1" xmlns="http://www.w3.org/2000/svg" xmlns:xlink="http://www.w3.org/1999/xlink" x="0px" y="0px"
	 viewBox="0 0 26.2 42" style="enable-background:new 0 0 26.2 42;" xml:space="preserve">
<style type="text/css">
	.st0{fill:#F89838;}
	.st1{fill:#009999;}
</style>
<g>
	
		<image style="overflow:visible;opacity:0.6;" width="58" height="73" xlink:href="6202BEC14E6FA46E.png"  transform="matrix(1 0 0 1 -15.875 -7)">
	</image>
	<g>
		<g>
			<path class="st0" d="M26.2,40.4c-4.8-3.2-9.1-8.4-15.7-19.4c-1.8,3-3.1,5-5.2,8.2c6.4,9,10.8,12.6,15.7,12.8h0
				C22.4,41.9,23.7,41.8,26.2,40.4"/>
			<path class="st1" d="M26.2,1.6C23.7,0.2,22.4,0.1,21,0h0c-4.9,0.2-9.4,3.8-15.7,12.8C7.4,16,8.7,18,10.5,21
				C17.1,10.1,21.4,4.8,26.2,1.6"/>
			<path class="st1" d="M10.5,21c-1.8-3-3.1-5-5.2-8.2C3.1,16,1.8,18,0,21c1.8,3,3.1,5,5.2,8.2C7.4,26,8.7,24,10.5,21z"/>
		</g>
	</g>
</g>
</svg>
