<?xml version="1.0" encoding="utf-8"?>
<!-- Generator: Adobe Illustrator 18.0.0, SVG Export Plug-In . SVG Version: 6.00 Build 0)  -->
<!DOCTYPE svg PUBLIC "-//W3C//DTD SVG 1.1//EN" "http://www.w3.org/Graphics/SVG/1.1/DTD/svg11.dtd">
<svg version="1.1" id="Layer_1" xmlns="http://www.w3.org/2000/svg" xmlns:xlink="http://www.w3.org/1999/xlink" x="0px" y="0px"
	 viewBox="0 0 640 128" style="enable-background:new 0 0 640 128;" xml:space="preserve">
<style type="text/css">
	.st0{enable-background:new    ;}
	.st1{fill:#011A1A;}
	.st2{clip-path:url(#SVGID_2_);enable-background:new    ;}
	.st3{fill:#011B1B;}
	.st4{fill:#004D4D;}
	.st5{clip-path:url(#SVGID_4_);enable-background:new    ;}
	.st6{clip-path:url(#SVGID_6_);enable-background:new    ;}
	.st7{fill:#005050;}
	.st8{clip-path:url(#SVGID_8_);enable-background:new    ;}
	.st9{clip-path:url(#SVGID_10_);enable-background:new    ;}
	.st10{clip-path:url(#SVGID_12_);enable-background:new    ;}
	.st11{clip-path:url(#SVGID_14_);enable-background:new    ;}
	.st12{fill:#013131;}
	.st13{fill:#009494;}
</style>
<g>
	
		<image style="overflow:visible;opacity:0.6;" width="665" height="156" xlink:href="53BBC53C0CE89026.png"  transform="matrix(1 0 0 1 -12 -6)">
	</image>
	<g>
		<g class="st0">
			<g>
				<rect x="64" y="30.3" class="st1" width="512" height="4.3"/>
			</g>
			<g class="st0">
				<defs>
					<path id="SVGID_1_" class="st0" d="M608,66.2c0-17.3-14.4-31.5-32-31.5v-4.3c17.6,0,32,14.2,32,31.5
						C608,63.1,608,64.9,608,66.2z"/>
				</defs>
				<clipPath id="SVGID_2_">
					<use xlink:href="#SVGID_1_"  style="overflow:visible;"/>
				</clipPath>
				<g class="st2">
					<path class="st3" d="M608,61.8v4.3c0-17.3-14.4-31.5-32-31.5v-4.3C593.6,30.3,608,44.5,608,61.8"/>
				</g>
			</g>
			<g>
				<rect x="64" y="32.3" class="st4" width="512" height="4.3"/>
			</g>
			<g class="st0">
				<defs>
					<path id="SVGID_3_" class="st0" d="M35.6,51.7c0-1.4,0-2.9,0-4.3C40.9,37.3,51.7,30.3,64,30.3v4.3
						C51.7,34.7,40.9,41.6,35.6,51.7z"/>
				</defs>
				<clipPath id="SVGID_4_">
					<use xlink:href="#SVGID_3_"  style="overflow:visible;"/>
				</clipPath>
				<g class="st5">
					<path class="st3" d="M64,30.3v4.3c-17.6,0-32,14.2-32,31.5v-4.3C32,44.5,46.4,30.3,64,30.3"/>
				</g>
			</g>
			<g class="st0">
				<defs>
					<path id="SVGID_5_" class="st0" d="M606,61.8v4.3c0-16.3-13.5-29.5-30-29.5v-4.3C592.5,32.3,606,45.5,606,61.8z"/>
				</defs>
				<clipPath id="SVGID_6_">
					<use xlink:href="#SVGID_5_"  style="overflow:visible;"/>
				</clipPath>
				<g class="st6">
					<path class="st7" d="M606,61.8v4.3c0-16.3-13.5-29.5-30-29.5v-4.3C592.5,32.3,606,45.5,606,61.8"/>
				</g>
			</g>
			<g class="st0">
				<defs>
					<path id="SVGID_7_" class="st0" d="M64,32.3v4.3c-16.5,0-30,13.3-30,29.5l0-4.3C34,45.5,47.5,32.3,64,32.3z"/>
				</defs>
				<clipPath id="SVGID_8_">
					<use xlink:href="#SVGID_7_"  style="overflow:visible;"/>
				</clipPath>
				<g class="st8">
					<path class="st7" d="M64,32.3v4.3c-16.5,0-30,13.3-30,29.5v-4.3C34,45.5,47.5,32.3,64,32.3"/>
				</g>
			</g>
			<g class="st0">
				<defs>
					<path id="SVGID_9_" class="st0" d="M35.6,51.7C33.3,56.1,32,61,32,66.2l0-4.3c0-5.2,1.3-10.1,3.6-14.4
						C35.6,48.7,35.6,51.7,35.6,51.7z"/>
				</defs>
				<clipPath id="SVGID_10_">
					<use xlink:href="#SVGID_9_"  style="overflow:visible;"/>
				</clipPath>
				<g class="st9">
					<path class="st3" d="M64,30.3v4.3c-17.6,0-32,14.2-32,31.5v-4.3C32,44.5,46.4,30.3,64,30.3"/>
				</g>
			</g>
			<g class="st0">
				<defs>
					<path id="SVGID_11_" class="st0" d="M608,61.8v4.3c0,17.3-14.4,31.5-32,31.5v-4.3C593.6,93.3,608,79.2,608,61.8z"/>
				</defs>
				<clipPath id="SVGID_12_">
					<use xlink:href="#SVGID_11_"  style="overflow:visible;"/>
				</clipPath>
				<g class="st10">
					<path class="st7" d="M608,61.8v4.3c0,17.3-14.4,31.5-32,31.5v-4.3C593.6,93.3,608,79.2,608,61.8"/>
				</g>
			</g>
			<g>
				<rect x="64" y="93.3" class="st4" width="512" height="4.3"/>
			</g>
			<g class="st0">
				<defs>
					<path id="SVGID_13_" class="st0" d="M64,93.3v4.3c-17.6,0-32-14.2-32-31.5l0-4.3C32,79.2,46.4,93.3,64,93.3z"/>
				</defs>
				<clipPath id="SVGID_14_">
					<use xlink:href="#SVGID_13_"  style="overflow:visible;"/>
				</clipPath>
				<g class="st11">
					<path class="st7" d="M64,93.3v4.3c-17.6,0-32-14.2-32-31.5v-4.3C32,79.2,46.4,93.3,64,93.3"/>
				</g>
			</g>
			<g>
				<path class="st12" d="M0-1.2h640v126.1H0V-1.2z M576,93.3c17.6,0,32-14.2,32-31.5c0-17.3-14.4-31.5-32-31.5H64
					c-17.6,0-32,14.2-32,31.5c0,17.3,14.4,31.5,32,31.5H576"/>
			</g>
			<g>
				<path class="st13" d="M576,30.3c17.6,0,32,14.2,32,31.5c0,17.3-14.4,31.5-32,31.5H64c-17.6,0-32-14.2-32-31.5
					c0-17.3,14.4-31.5,32-31.5H576z M576,91.4c16.5,0,30-13.3,30-29.5s-13.5-29.5-30-29.5H64c-16.5,0-30,13.3-30,29.5
					s13.5,29.5,30,29.5H576"/>
			</g>
			<g>
				<rect x="0" y="124.9" class="st1" width="640" height="4.3"/>
			</g>
		</g>
	</g>
</g>
</svg>
