<?xml version="1.0" encoding="utf-8"?>
<!-- Generator: Adobe Illustrator 18.0.0, SVG Export Plug-In . SVG Version: 6.00 Build 0)  -->
<!DOCTYPE svg PUBLIC "-//W3C//DTD SVG 1.1//EN" "http://www.w3.org/Graphics/SVG/1.1/DTD/svg11.dtd">
<svg version="1.1" id="Layer_1" xmlns="http://www.w3.org/2000/svg" xmlns:xlink="http://www.w3.org/1999/xlink" x="0px" y="0px"
	 viewBox="0 0 512 107.2" style="enable-background:new 0 0 512 107.2;" xml:space="preserve">
<style type="text/css">
	.st0{fill:#F89838;}
	.st1{fill:#009999;}
	.st2{fill:none;stroke:#009999;stroke-width:10.5459;stroke-miterlimit:10;}
	.st3{enable-background:new    ;}
	.st4{clip-path:url(#SVGID_4_);}
	.st5{fill:#009898;}
	.st6{fill:#F79838;}
</style>
<g>
	
		<image style="overflow:visible;opacity:0.6;" width="543" height="138" xlink:href="A44D518D25F06A29.png"  transform="matrix(1 0 0 1 -16 -5.1677)">
	</image>
	<g>
		<g>
			<g>
				<g>
					<g>
						<defs>
							<path id="SVGID_1_" d="M328,32.2l75,0c0,0,0,16.8,0,37.5s0,37.5,0,37.5l-75,0c0,0,0-16.8,0-37.5S328,32.2,328,32.2z"/>
						</defs>
						<clipPath id="SVGID_2_">
							<use xlink:href="#SVGID_1_"  style="overflow:visible;"/>
						</clipPath>
					</g>
				</g>
			</g>
		</g>
		<g>
			<g>
				<circle class="st0" cx="403" cy="69.7" r="8.2"/>
			</g>
			<g>
				<circle class="st0" cx="427" cy="52.7" r="5.3"/>
			</g>
			<g>
				<circle class="st0" cx="427" cy="38.7" r="6.4"/>
			</g>
			<g>
				<circle class="st0" cx="427" cy="101.9" r="5.3"/>
			</g>
			<rect x="421.8" y="52.7" class="st0" width="10.5" height="49.2"/>
			<g>
				<path class="st1" d="M196.8,42.8c14.9,0,27,12.1,27,27c0,14.9-12.1,27-27,27s-27-12.1-27-27C169.8,54.9,181.9,42.8,196.8,42.8
					 M196.8,32.2c-20.7,0-37.5,16.8-37.5,37.5c0,20.7,16.8,37.5,37.5,37.5c20.7,0,37.5-16.8,37.5-37.5
					C234.3,49,217.5,32.2,196.8,32.2L196.8,32.2z"/>
			</g>
			<rect x="223.7" y="69.7" class="st1" width="10.5" height="32.2"/>
			<circle class="st1" cx="229" cy="101.9" r="5.3"/>
			<path class="st2" d="M60.3,92.5c-5.8,5.8-13.9,9.4-22.8,9.4c-17.8,0-32.2-14.4-32.2-32.2"/>
			<rect x="0" y="37.5" class="st1" width="10.5" height="32.2"/>
			<rect x="0" y="5.3" class="st1" width="10.5" height="32.2"/>
			<circle class="st1" cx="5.3" cy="5.3" r="5.3"/>
			<circle class="st1" cx="60.3" cy="92.5" r="5.3"/>
			<rect x="10.5" y="32.2" class="st1" width="49.7" height="10.5"/>
			<circle class="st1" cx="60.3" cy="37.5" r="5.3"/>
			<path class="st2" d="M80.2,69.7c0-17.8,14.4-32.2,32.2-32.2c17.8,0,32.2,14.4,32.2,32.2"/>
			<rect x="139.4" y="69.7" class="st1" width="10.5" height="32.2"/>
			<circle class="st1" cx="144.6" cy="101.9" r="5.3"/>
			<rect x="74.9" y="69.7" class="st1" width="10.5" height="32.2"/>
			<circle class="st1" cx="80.2" cy="101.9" r="5.3"/>
			<rect x="74.9" y="37.5" class="st1" width="10.5" height="32.2"/>
			<rect x="74.9" y="5.3" class="st1" width="10.5" height="32.2"/>
			<circle class="st1" cx="80.2" cy="5.3" r="5.3"/>
			<path class="st2" d="M248.9,69.7c0-17.8,14.4-32.2,32.2-32.2c17.8,0,32.2,14.4,32.2,32.2"/>
			<rect x="308.1" y="69.7" class="st1" width="10.5" height="32.2"/>
			<circle class="st1" cx="313.4" cy="101.9" r="5.3"/>
			<rect x="243.7" y="69.7" class="st1" width="10.5" height="32.2"/>
			<circle class="st1" cx="248.9" cy="101.9" r="5.3"/>
			<g>
				<path class="st0" d="M474.5,42.8c14.9,0,27,12.1,27,27c0,14.9-12.1,27-27,27s-27-12.1-27-27C447.6,54.9,459.6,42.8,474.5,42.8
					 M474.5,32.2C453.8,32.2,437,49,437,69.7c0,20.7,16.8,37.5,37.5,37.5c20.7,0,37.5-16.8,37.5-37.5C512,49,495.2,32.2,474.5,32.2
					L474.5,32.2z"/>
			</g>
			<g>
				<g class="st3">
					<g class="st3">
						<defs>
							<path id="SVGID_3_" class="st3" d="M328,32.2l75,0c0,0,0,16.8,0,37.5s0,37.5,0,37.5l-75,0c0,0,0-16.8,0-37.5
								S328,32.2,328,32.2z"/>
						</defs>
						<clipPath id="SVGID_4_">
							<use xlink:href="#SVGID_3_"  style="overflow:visible;"/>
						</clipPath>
						<g class="st4">
							<path class="st5" d="M328.1,35.2c8.6,5.7,16.2,15,28.1,34.5c3.2-5.3,5.5-9,9.4-14.6c-11.4-16.1-19.3-22.5-28.1-22.9h0
								C335,32.4,332.7,32.5,328.1,35.2 M403,104.3c-8.6-5.7-16.2-15-28.1-34.6c-3.1,5.2-5.5,9-9.4,14.6
								c11.4,16.1,19.3,22.5,28.1,22.9C396.1,107.1,398.4,106.9,403,104.3"/>
							<path class="st6" d="M328.1,104.3c8.6-5.7,16.2-15,28.1-34.6c3.2-5.3,5.5-9,9.4-14.6c11.4-16.1,19.3-22.5,28.1-22.9h0
								c2.4,0.1,4.8,0.3,9.4,2.9c-8.6,5.7-16.2,15-28.1,34.5c-3.1,5.2-5.5,9-9.4,14.6c-11.4,16.1-19.3,22.5-28.1,22.9
								C335,107.1,332.7,106.9,328.1,104.3"/>
						</g>
					</g>
				</g>
			</g>
		</g>
		<g>
			<g>
				<g>
					<g>
						<defs>
							<path id="SVGID_5_" d="M328,32.2l75,0c0,0,0,16.8,0,37.5s0,37.5,0,37.5l-75,0c0,0,0-16.8,0-37.5S328,32.2,328,32.2z"/>
						</defs>
						<clipPath id="SVGID_6_">
							<use xlink:href="#SVGID_5_"  style="overflow:visible;"/>
						</clipPath>
					</g>
				</g>
			</g>
		</g>
	</g>
</g>
</svg>
