<?xml version="1.0" encoding="utf-8"?>
<!-- Generator: Adobe Illustrator 18.0.0, SVG Export Plug-In . SVG Version: 6.00 Build 0)  -->
<!DOCTYPE svg PUBLIC "-//W3C//DTD SVG 1.1//EN" "http://www.w3.org/Graphics/SVG/1.1/DTD/svg11.dtd">
<svg version="1.1" id="Layer_1" xmlns="http://www.w3.org/2000/svg" xmlns:xlink="http://www.w3.org/1999/xlink" x="0px" y="0px"
	 viewBox="0 0 640 128" style="enable-background:new 0 0 640 128;" xml:space="preserve">
<style type="text/css">
	.Graphic_x0020_Style{fill:none;}
	.st0{enable-background:new    ;}
	.st1{fill:#011A1A;}
	.st2{clip-path:url(#SVGID_2_);enable-background:new    ;}
	.st3{fill:#011B1B;}
	.st4{clip-path:url(#SVGID_4_);enable-background:new    ;}
	.st5{fill:#004D4D;}
	.st6{clip-path:url(#SVGID_6_);enable-background:new    ;}
	.st7{fill:#005050;}
	.st8{clip-path:url(#SVGID_8_);enable-background:new    ;}
	.st9{clip-path:url(#SVGID_10_);enable-background:new    ;}
	.st10{clip-path:url(#SVGID_12_);enable-background:new    ;}
	.st11{clip-path:url(#SVGID_14_);enable-background:new    ;}
	.st12{clip-path:url(#SVGID_16_);enable-background:new    ;}
	.st13{fill:#009090;}
	.st14{fill:#013030;}
</style>
<g>
	
		<image style="overflow:visible;opacity:0.6;" width="665" height="156" xlink:href="2096A5D93CFB3A52.png"  transform="matrix(1 0 0 1 -12 -6)">
	</image>
	<g>
		<g class="st0">
			<g>
				<rect x="184" y="6.6" class="st1" width="272" height="4.7"/>
			</g>
			<g class="st0">
				<defs>
					<path id="SVGID_1_" class="st0" d="M184,6.6v4.7c-30.8,0-56,24.8-56,55l0-4.7C128,31.4,153.2,6.6,184,6.6z"/>
				</defs>
				<clipPath id="SVGID_2_">
					<use xlink:href="#SVGID_1_"  style="overflow:visible;"/>
				</clipPath>
				<g class="st2">
					<path class="st3" d="M184,6.6v4.7c-30.8,0-56,24.8-56,55v-4.7C128,31.4,153.2,6.6,184,6.6"/>
				</g>
			</g>
			<g class="st0">
				<defs>
					<path id="SVGID_3_" class="st0" d="M512,61.7v4.7c0-30.3-25.2-55-56-55V6.6C486.8,6.6,512,31.4,512,61.7z"/>
				</defs>
				<clipPath id="SVGID_4_">
					<use xlink:href="#SVGID_3_"  style="overflow:visible;"/>
				</clipPath>
				<g class="st4">
					<path class="st3" d="M512,61.7v4.7c0-30.3-25.2-55-56-55V6.6C486.8,6.6,512,31.4,512,61.7"/>
				</g>
			</g>
			<g>
				<rect x="184" y="8.6" class="st5" width="272" height="4.7"/>
			</g>
			<g class="st0">
				<defs>
					<path id="SVGID_5_" class="st0" d="M510,61.7v4.7c0-29.2-24.2-53-54-53V8.6C485.8,8.6,510,32.4,510,61.7z"/>
				</defs>
				<clipPath id="SVGID_6_">
					<use xlink:href="#SVGID_5_"  style="overflow:visible;"/>
				</clipPath>
				<g class="st6">
					<path class="st7" d="M510,61.7v4.7c0-29.2-24.2-53-54-53V8.6C485.8,8.6,510,32.4,510,61.7"/>
				</g>
			</g>
			<g class="st0">
				<defs>
					<path id="SVGID_7_" class="st0" d="M184,8.6v4.7c-29.8,0-54,23.8-54,53v-4.7C130,32.4,154.2,8.6,184,8.6z"/>
				</defs>
				<clipPath id="SVGID_8_">
					<use xlink:href="#SVGID_7_"  style="overflow:visible;"/>
				</clipPath>
				<g class="st8">
					<path class="st7" d="M184,8.6v4.7c-29.8,0-54,23.8-54,53v-4.7C130,32.4,154.2,8.6,184,8.6"/>
				</g>
			</g>
			<g class="st0">
				<defs>
					<path id="SVGID_9_" class="st0" d="M128,66.4C128,66.4,128,66.4,128,66.4l0-4.7c0,0,0,0,0,0c0,0.2,0,0.4,0,0.5
						c0,0.2,0,0.4,0,0.6c0,0.2,0,0.4,0,0.6c0,0.2,0,0.4,0,0.6c0,0.2,0,0.4,0,0.6c0,0.2,0,0.4,0,0.6c0,0.2,0,0.4,0,0.6
						C128,66,128,66.2,128,66.4z"/>
				</defs>
				<clipPath id="SVGID_10_">
					<use xlink:href="#SVGID_9_"  style="overflow:visible;"/>
				</clipPath>
				<g class="st9">
					<path class="st7" d="M184,116.7v4.7c-30.8,0-56-24.8-56-55v-4.7C128,91.9,153.2,116.7,184,116.7"/>
				</g>
			</g>
			<g class="st0">
				<defs>
					<path id="SVGID_11_" class="st0" d="M486.7,112.3C486.7,112.3,486.7,112.3,486.7,112.3C486.7,112.3,486.7,112.2,486.7,112.3
						c0-0.1,0-0.1,0-0.1c0,0,0,0,0,0c0,0,0,0,0,0c0,0,0,0,0,0c0,0,0,0,0,0c0,0,0,0,0,0c0-0.2,0-0.4,0-0.5c0-0.2,0-0.4,0-0.5
						c0-0.2,0-0.4,0-0.6c0-0.2,0-0.4,0-0.6c0-0.2,0-0.4,0-0.6c0-0.2,0-0.4,0-0.6c0-0.2,0-0.4,0-0.5c0-0.2,0-0.4,0-0.5
						c15.2-9.9,25.4-26.8,25.4-46v4.7C512,85.5,501.9,102.5,486.7,112.3z"/>
				</defs>
				<clipPath id="SVGID_12_">
					<use xlink:href="#SVGID_11_"  style="overflow:visible;"/>
				</clipPath>
				<g class="st10">
					<path class="st7" d="M512,61.7v4.7c0,30.3-25.2,55-56,55v-4.7C486.8,116.7,512,91.9,512,61.7"/>
				</g>
			</g>
			<g class="st0">
				<defs>
					<path id="SVGID_13_" class="st0" d="M184,121.3c-30.8,0-56-24.7-56-55c0-0.2,0-0.4,0-0.5c0-0.2,0-0.4,0-0.6c0-0.2,0-0.4,0-0.6
						c0-0.2,0-0.4,0-0.6c0-0.2,0-0.4,0-0.6c0-0.2,0-0.4,0-0.6c0-0.2,0-0.4,0-0.6c0-0.2,0-0.4,0-0.5c0,30.2,25.2,55,56,55
						C184,118.1,184,119.9,184,121.3z"/>
				</defs>
				<clipPath id="SVGID_14_">
					<use xlink:href="#SVGID_13_"  style="overflow:visible;"/>
				</clipPath>
				<g class="st11">
					<path class="st7" d="M184,116.7v4.7c-30.8,0-56-24.8-56-55v-4.7C128,91.9,153.2,116.7,184,116.7"/>
				</g>
			</g>
			<g>
				<rect x="184" y="116.7" class="st5" width="272" height="4.7"/>
			</g>
			<g class="st0">
				<defs>
					<path id="SVGID_15_" class="st0" d="M486.7,112.3c-8.8,5.7-19.4,9-30.7,9v-4.7c11.3,0,21.8-3.3,30.7-9c0,0.2,0,0.4,0,0.5
						c0,0.2,0,0.4,0,0.5c0,0.2,0,0.4,0,0.6c0,0.2,0,0.4,0,0.6c0,0.2,0,0.4,0,0.6c0,0.2,0,0.4,0,0.6c0,0.2,0,0.4,0,0.5
						c0,0.2,0,0.4,0,0.5c0,0,0,0,0,0c0,0,0,0,0,0c0,0,0,0,0,0c0,0,0,0,0,0c0,0,0,0,0,0C486.7,112.2,486.7,112.2,486.7,112.3
						C486.7,112.2,486.7,112.3,486.7,112.3C486.7,112.3,486.7,112.3,486.7,112.3z"/>
				</defs>
				<clipPath id="SVGID_16_">
					<use xlink:href="#SVGID_15_"  style="overflow:visible;"/>
				</clipPath>
				<g class="st12">
					<path class="st7" d="M512,61.7v4.7c0,30.3-25.2,55-56,55v-4.7C486.8,116.7,512,91.9,512,61.7"/>
				</g>
			</g>
			<g>
				<path class="st13" d="M456,6.7c30.8,0,56,24.8,56,55c0,30.3-25.2,55-56,55H184c-30.8,0-56-24.8-56-55c0-30.3,25.2-55,56-55H456z
					 M456,114.7c29.8,0,54-23.8,54-53c0-29.2-24.2-53-54-53H184c-29.8,0-54,23.8-54,53c0,29.3,24.2,53,54,53H456"/>
			</g>
			<g>
				<rect x="0" y="124.5" class="st1" width="640" height="4.7"/>
			</g>
			<g>
				<path class="st14" d="M0-1.2h640v125.7H0V-1.2z M456,116.7c30.8,0,56-24.8,56-55c0-30.3-25.2-55-56-55H184
					c-30.8,0-56,24.8-56,55c0,30.3,25.2,55,56,55H456"/>
			</g>
		</g>
	</g>
</g>
</svg>
